<svg aria-hidden="true" style="position: absolute; width: 0; height: 0; overflow: hidden;" version="1.1" xmlns="http://www.w3.org/2000/svg" xmlns:xlink="http://www.w3.org/1999/xlink">
<defs>
<symbol id="icon-email-black-18dp-1" viewBox="0 0 16 16">
<path d="M13.333 2.667h-10.667c-0.733 0-1.327 0.6-1.327 1.333l-0.007 8c0 0.733 0.6 1.333 1.333 1.333h10.667c0.733 0 1.333-0.6 1.333-1.333v-8c0-0.733-0.6-1.333-1.333-1.333zM13.067 5.5l-4.713 2.947c-0.213 0.133-0.493 0.133-0.707 0l-4.713-2.947c-0.167-0.107-0.267-0.287-0.267-0.48 0-0.447 0.487-0.713 0.867-0.48l4.467 2.793 4.467-2.793c0.38-0.233 0.867 0.033 0.867 0.48 0 0.193-0.1 0.373-0.267 0.48z"></path>
</symbol>
<symbol id="icon-icon-send" viewBox="0 0 16 16">
<path fill="#fff" style="fill: var(--color1, #fff)" d="M16 0l-16 9 5.113 1.894 7.887-7.394-5.999 8.093 0.005 0.002-0.006-0.002v4.407l2.868-3.345 3.633 1.345 2.5-14z"></path>
</symbol>
<symbol id="icon-person-black-18dp-1" viewBox="0 0 16 16">
<path d="M8 8c1.473 0 2.667-1.193 2.667-2.667s-1.193-2.667-2.667-2.667c-1.473 0-2.667 1.193-2.667 2.667s1.193 2.667 2.667 2.667zM8 9.333c-1.78 0-5.333 0.893-5.333 2.667v0.667c0 0.367 0.3 0.667 0.667 0.667h9.333c0.367 0 0.667-0.3 0.667-0.667v-0.667c0-1.773-3.553-2.667-5.333-2.667z"></path>
</symbol>
<symbol id="icon-phone-black-18dp-1" viewBox="0 0 16 16">
<path d="M12.441 9.887l-1.634-0.187c-0.392-0.045-0.778 0.090-1.055 0.367l-1.184 1.184c-1.82-0.926-3.313-2.412-4.239-4.239l1.19-1.19c0.277-0.277 0.412-0.663 0.367-1.055l-0.187-1.621c-0.077-0.65-0.624-1.139-1.28-1.139h-1.113c-0.727 0-1.332 0.605-1.287 1.332 0.341 5.494 4.734 9.881 10.222 10.222 0.727 0.045 1.332-0.56 1.332-1.287v-1.113c0.006-0.65-0.482-1.197-1.132-1.274z"></path>
</symbol>
<symbol id="icon-close-black-18dp-2-1" viewBox="0 0 16 16">
<path d="M13.333 3.651l-0.985-0.985-3.904 3.904-3.904-3.904-0.985 0.985 3.904 3.904-3.904 3.904 0.985 0.985 3.904-3.904 3.904 3.904 0.985-0.985-3.904-3.904 3.904-3.904z"></path>
</symbol>
</defs>
</svg>
